<svg version="1.1" id="Layer_1" xmlns="http://www.w3.org/2000/svg" x="0px" y="0px"
	 width="500px" height="500px" viewBox="0 0 500 500">
<g>
	<path fill="#408ECC" d="M222.041,482.706c-5.955-8.519-12.324-16.79-17.617-25.64c-13.068-21.918-20.181-45.573-19.189-71.296
		c0.993-27.046,11.083-50.784,26.715-72.454c11.083-15.384,24.813-28.37,38.874-41.024c22.58-20.347,42.43-43.009,57.318-69.725
		c11.91-21.422,19.933-44.085,20.76-68.815c0.165-4.797,0-9.677,0-14.971c2.647,4.053,5.211,8.023,7.692,12.076
		c13.647,22.166,25.475,45.243,32.836,70.469c12.82,44.002,4.136,83.289-25.144,118.359c-15.715,18.858-33.911,35.235-51.611,52.19
		c-16.294,15.632-32.257,31.595-44.994,50.371c-11.993,17.617-20.429,36.723-23.655,57.897c-0.083,0.579-0.331,1.241-0.496,1.82
		C222.951,482.209,222.455,482.457,222.041,482.706z"/>
	<path fill="#408ECC" d="M263.562,17.294c7.692,13.482,15.715,26.715,22.911,40.445c10.752,20.512,22.414,39.701,25.475,62.86
		c3.887,29.197-6.286,58.311-22.332,82.876c-12.986,19.768-29.858,36.144-46.649,52.521c-16.542,16.129-33.25,32.009-47.145,50.619
		c-16.625,22.249-26.385,46.979-26.798,75.018c0,0.662-0.083,1.241-0.165,2.481c-0.993-0.91-1.82-1.406-2.399-2.15
		c-19.354-22.249-33.332-47.476-39.122-76.424c-6.286-31.347-0.91-61.123,16.956-88.169c11.828-17.948,26.633-33.084,42.43-47.476
		c23.49-21.257,43.754-45.243,58.476-73.612c11-21.174,18.114-43.506,17.948-67.657c0-3.557-0.414-7.113-0.662-10.67
		C262.817,17.708,263.231,17.46,263.562,17.294z"/>
</g>
</svg>
