<?xml version="1.0" standalone="no"?>
<!DOCTYPE svg PUBLIC "-//W3C//DTD SVG 20010904//EN"
 "http://www.w3.org/TR/2001/REC-SVG-20010904/DTD/svg10.dtd">
<svg version="1.0" xmlns="http://www.w3.org/2000/svg"
 width="512.000000pt" height="512.000000pt" viewBox="0 0 512.000000 512.000000"
 preserveAspectRatio="xMidYMid meet">
<metadata>
Created by potrace 1.11, written by Peter Selinger 2001-2013
</metadata>
<g transform="translate(0.000000,512.000000) scale(0.100000,-0.100000)"
fill="#000000" stroke="none">
<path d="M2690 4940 c0 -3 -1 -64 -1 -135 -1 -157 -33 -334 -78 -440 -5 -11
-15 -36 -22 -55 -42 -118 -187 -373 -287 -504 -106 -141 -155 -192 -530 -560
-342 -334 -494 -643 -494 -1006 -1 -303 120 -637 331 -916 65 -86 111 -137
117 -131 3 3 7 36 9 74 10 212 89 438 222 640 92 139 208 268 504 563 158 157
324 330 369 384 277 333 405 688 367 1017 -11 98 -42 208 -92 324 -77 182
-413 784 -415 745z"/>
<path d="M3369 3879 c-5 -215 -10 -266 -43 -404 -83 -345 -306 -700 -645
-1030 -431 -418 -488 -482 -596 -659 -82 -137 -138 -281 -170 -441 -18 -86
-23 -270 -12 -374 21 -192 112 -422 241 -611 36 -52 78 -114 93 -137 31 -47
50 -54 58 -20 43 199 66 270 127 392 116 233 262 412 598 735 339 326 419 408
521 535 413 513 401 1076 -38 1824 -101 172 -133 217 -134 190z"/>
</g>
</svg>
