<?xml version="1.0" standalone="no"?>
<!DOCTYPE svg PUBLIC "-//W3C//DTD SVG 20010904//EN"
 "http://www.w3.org/TR/2001/REC-SVG-20010904/DTD/svg10.dtd">
<svg version="1.0" xmlns="http://www.w3.org/2000/svg"
 width="500.000000pt" height="500.000000pt" viewBox="0 0 500.000000 500.000000"
 preserveAspectRatio="xMidYMid meet">
<metadata>
Created by potrace 1.11, written by Peter Selinger 2001-2013
</metadata>
<g transform="translate(0.000000,500.000000) scale(0.100000,-0.100000)"
fill="#000000" stroke="none">
<path d="M2630 4824 c3 -316 -39 -502 -170 -764 -134 -266 -251 -416 -599
-760 -186 -185 -292 -298 -349 -375 -103 -137 -193 -314 -229 -450 -23 -89
-26 -119 -27 -275 -1 -187 9 -259 60 -424 54 -173 208 -441 331 -575 l42 -46
1 45 c1 147 65 389 140 526 107 201 212 326 580 694 381 380 470 489 584 717
94 188 129 330 129 528 1 224 -37 344 -216 680 -78 147 -261 472 -273 484 -2
2 -4 0 -4 -5z"/>
<path d="M3290 3720 c0 -347 -149 -716 -434 -1074 -79 -99 -196 -221 -492
-506 -318 -308 -472 -590 -506 -932 -24 -233 18 -444 132 -673 69 -138 223
-370 239 -360 5 2 14 35 21 72 28 151 108 343 207 498 94 145 207 271 583 645
457 455 530 544 624 772 65 157 80 240 81 438 0 202 -11 270 -81 479 -64 195
-194 456 -333 670 l-41 64 0 -93z"/>
</g>
</svg>
